<?xml version="1.0" encoding="UTF-8"?>
<svg viewBox="0 0 744.09448819 1052.3622047" xmlns="http://www.w3.org/2000/svg">
 <path d="m435.84 543.36 2.0125 6.8838 5.9838 2.4075-6.02 2.3175-2.115 6.8525-2.0125-6.8838-5.9838-2.4075 6.0188-2.3162 2.1162-6.8538" fill="#fff" fill-rule="evenodd"/>
 <path d="m435.84 543.36 2.0125 6.8838 5.9838 2.4075-6.02 2.3175-2.115 6.8525-2.0125-6.8838-5.9838-2.4075 6.0188-2.3162 2.1162-6.8538z" fill="none" stroke="#000" stroke-linecap="round" stroke-linejoin="round" stroke-miterlimit="11.5" stroke-width="2.105"/>
 <path d="m329.55 567.2 2.9012 10.835 8.6438 3.7838-8.7 3.6525-3.0625 10.79-2.9012-10.835-8.645-3.7825 8.7-3.6538 3.0638-10.79" fill="#fff" fill-rule="evenodd"/>
 <path d="m329.55 567.2 2.9012 10.835 8.6438 3.7838-8.7 3.6525-3.0625 10.79-2.9012-10.835-8.645-3.7825 8.7-3.6538 3.0638-10.79z" fill="none" stroke="#000" stroke-linecap="round" stroke-linejoin="round" stroke-miterlimit="11.5" stroke-width="2.105"/>
 <path d="m318.78 434.52c-0.02125 2.6725-2.3075 4.8238-5.1062 4.8025s-5.0512-2.2062-5.0312-4.8788 2.3075-4.8238 5.105-4.8025 5.0525 2.2075 5.0325 4.8788" fill="#fff" fill-rule="evenodd"/>
 <path d="m308.82 608.85c-0.02125 2.6725-2.3075 4.8237-5.1062 4.8025s-5.0512-2.2063-5.0312-4.8788 2.3075-4.8237 5.105-4.8025 5.0525 2.2075 5.0325 4.8788z" fill="none" stroke="#000" stroke-linecap="round" stroke-linejoin="round" stroke-miterlimit="11.5" stroke-width="2.105"/>
 <path d="m354.8 538.12c-0.02 2.6725-2.3062 4.8238-5.105 4.8025s-5.0512-2.2062-5.0312-4.8788 2.3062-4.8225 5.105-4.8025 5.0525 2.2075 5.0312 4.8788z" fill="none" stroke="#000" stroke-linecap="round" stroke-linejoin="round" stroke-miterlimit="11.5" stroke-width="2.105"/>
 <path d="m378.64 604.3c-0.02 2.6725-2.3062 4.8237-5.105 4.8025s-5.0512-2.2063-5.0312-4.8788 2.3075-4.8237 5.105-4.8025 5.0525 2.2075 5.0312 4.8788" fill="#fff" fill-rule="evenodd"/>
 <path d="m378.64 604.3c-0.02 2.6725-2.3062 4.8237-5.105 4.8025s-5.0512-2.2063-5.0312-4.8788 2.3075-4.8237 5.105-4.8025 5.0525 2.2075 5.0312 4.8788z" fill="none" stroke="#000" stroke-linecap="round" stroke-linejoin="round" stroke-miterlimit="11.5" stroke-width="2.105"/>
 <path d="m397.4 481.06c-0.02 2.6712-2.3062 4.8238-5.105 4.8025s-5.0512-2.2075-5.0312-4.8788 2.3062-4.8238 5.105-4.8025 5.0525 2.2062 5.0312 4.8788z" fill="none" stroke="#000" stroke-linecap="round" stroke-linejoin="round" stroke-miterlimit="11.5" stroke-width="2.105"/>
 <path d="m277.18 503.33 2.9 10.835 8.645 3.7825-8.7012 3.6538-3.0625 10.79-2.9012-10.835-8.6438-3.7825 8.7-3.6538 3.0638-10.79z" fill="none" stroke="#000" stroke-linecap="round" stroke-linejoin="round" stroke-miterlimit="11.5" stroke-width="2.105"/>
 <path d="m303.21 539.67c-0.02 2.6712-2.3075 4.8238-5.105 4.8025s-5.0525-2.2075-5.0325-4.8788 2.3075-4.8238 5.105-4.8025 5.0525 2.2062 5.0325 4.8788z" fill="none" stroke="#000" stroke-linecap="round" stroke-linejoin="round" stroke-miterlimit="11.5" stroke-width="2.105"/>
 <path d="m294.44 561.57c-0.02 2.6725-2.3075 4.8238-5.105 4.8025s-5.0525-2.2062-5.0325-4.8788 2.3075-4.8225 5.105-4.8025 5.0525 2.2075 5.0325 4.8788" fill="#fff" fill-rule="evenodd"/>
 <path d="m445.86 496.82c-0.02 2.6725-2.3075 4.8238-5.105 4.8025s-5.0525-2.2062-5.0325-4.8788 2.3075-4.8225 5.105-4.8025 5.0525 2.2075 5.0325 4.8788z" fill="none" stroke="#000" stroke-linecap="round" stroke-linejoin="round" stroke-miterlimit="14.3" stroke-width="2.105"/>
 <path d="m412.45 441.71 2.9012 10.835 8.6438 3.7838-8.7 3.6525-3.0625 10.79-2.9012-10.835-8.645-3.7825 8.7-3.6538 3.0638-10.79" fill="#fff" fill-rule="evenodd"/>
 <path d="m412.45 441.71 2.9012 10.835 8.6438 3.7838-8.7 3.6525-3.0625 10.79-2.9012-10.835-8.645-3.7825 8.7-3.6538 3.0638-10.79z" fill="none" stroke="#000" stroke-linecap="round" stroke-linejoin="round" stroke-miterlimit="14.3" stroke-width="2.105"/>
 <path d="m409.49 497.41 2.9012 10.835 8.6438 3.7838-8.7 3.6525-3.0625 10.79-2.9012-10.835-8.645-3.7825 8.7-3.6538 3.0638-10.79" fill="#fff" fill-rule="evenodd"/>
 <path d="m409.49 497.41 2.9012 10.835 8.6438 3.7838-8.7 3.6525-3.0625 10.79-2.9012-10.835-8.645-3.7825 8.7-3.6538 3.0638-10.79z" fill="none" stroke="#000" stroke-linecap="round" stroke-linejoin="round" stroke-miterlimit="14.3" stroke-width="2.105"/>
 <path d="m316.81 490.77c-0.02 2.6712-2.3062 4.8225-5.105 4.8012s-5.0512-2.2062-5.0312-4.8788 2.3062-4.8225 5.105-4.8012 5.0525 2.2062 5.0312 4.8788" fill="#fff" fill-rule="evenodd"/>
 <path d="m316.81 490.77c-0.02 2.6712-2.3062 4.8225-5.105 4.8012s-5.0512-2.2062-5.0312-4.8788 2.3062-4.8225 5.105-4.8012 5.0525 2.2062 5.0312 4.8788z" fill="none" stroke="#000" stroke-linecap="round" stroke-linejoin="round" stroke-miterlimit="14.3" stroke-width="2.105"/>
 <path d="m346.5 474.47 2.9012 10.834 8.6438 3.7838-8.7 3.6525-3.0625 10.79-2.9012-10.834-8.645-3.7838 8.7-3.6525 3.0638-10.79z" fill="none" stroke="#000" stroke-linecap="round" stroke-linejoin="round" stroke-miterlimit="14.3" stroke-width="2.105"/>
 <path d="m382.02 577.95c-0.02 2.6712-2.3075 4.8238-5.105 4.8025s-5.0525-2.2075-5.0325-4.8788 2.3075-4.8238 5.105-4.8025 5.0525 2.2062 5.0325 4.8788z" fill="none" stroke="#000" stroke-linecap="round" stroke-linejoin="round" stroke-miterlimit="14.3" stroke-width="2.105"/>
 <path d="m376.55 510.03 2.9012 10.835 8.6438 3.7825-8.7 3.6538-3.0638 10.79-2.9012-10.835-8.6438-3.7825 8.7-3.6538 3.0638-10.79" fill="#fff" fill-rule="evenodd"/>
 <path d="m376.55 510.03 2.9012 10.835 8.6438 3.7825-8.7 3.6538-3.0638 10.79-2.9012-10.835-8.6438-3.7825 8.7-3.6538 3.0638-10.79z" fill="none" stroke="#000" stroke-linecap="round" stroke-linejoin="round" stroke-miterlimit="14.3" stroke-width="2.105"/>
 <path d="m317.15 565.32c-0.02 2.6725-2.3075 4.8238-5.105 4.8025s-5.0525-2.2062-5.0325-4.8788 2.3075-4.8238 5.105-4.8025 5.0525 2.2075 5.0325 4.8788z" fill="none" stroke="#000" stroke-linecap="round" stroke-linejoin="round" stroke-miterlimit="14.3" stroke-width="2.105"/>
 <path d="m439.88 529.36c-0.02 2.6725-2.3062 4.8238-5.105 4.8025s-5.0512-2.2062-5.0312-4.8788 2.3075-4.8225 5.105-4.8025 5.0525 2.2075 5.0312 4.8788z" fill="none" stroke="#000" stroke-linecap="round" stroke-linejoin="round" stroke-miterlimit="14.3" stroke-width="2.105"/>
 <path d="m405.77 548.5 2.9012 10.835 8.6438 3.7825-8.7 3.6538-3.0638 10.79-2.9-10.835-8.645-3.7825 8.7-3.6538 3.0638-10.79z" fill="none" stroke="#000" stroke-linecap="round" stroke-linejoin="round" stroke-miterlimit="14.3" stroke-width="2.105"/>
 <path d="m444.72 430.91-1.9212 1.0575s-1.1762 0.81-2.4812 0.6075c-1.3038-0.20375-3.11-1.9325-3.11-1.9325l-1.0638-2.6075 6.0762-2.2162 2.5 5.0912" fill="#fff" fill-rule="evenodd"/>
 <path d="m444.72 430.91-1.9212 1.0575s-1.1762 0.81-2.4812 0.6075c-1.3038-0.20375-3.11-1.9325-3.11-1.9325l-1.0638-2.6075 6.0762-2.2162 2.5 5.0912z" fill="none" stroke="#000" stroke-linecap="round" stroke-linejoin="round" stroke-miterlimit="14.3" stroke-width="1.25"/>
 <path d="m444.28 429.58-3.2225 1.4862s-1.1762 0.81125-2.48 0.6075-1.8688-1.9188-1.8688-1.9188l-1.0638-2.6075 6.135-2.66 2.5 5.0925" fill="#fff" fill-rule="evenodd"/>
 <path d="m444.28 429.58-3.2225 1.4862s-1.1762 0.81125-2.48 0.6075-1.8688-1.9188-1.8688-1.9188l-1.0638-2.6075 6.135-2.66 2.5 5.0925z" fill="none" stroke="#000" stroke-linecap="round" stroke-linejoin="round" stroke-miterlimit="14.3" stroke-width="1.25"/>
</svg>
